<svg width="320" height="210" viewBox="0 0 320 210" fill="none" xmlns="http://www.w3.org/2000/svg">
<path d="M282.19 2H38.5107C35.8444 2 33.1855 2.28169 30.5783 2.84037L25.0291 4.02948C13.7631 6.44361 4.97827 15.2705 2.6179 26.5478C2.20706 28.5107 2 30.5107 2 32.5162V181.5C2 196.412 14.0883 208.5 29 208.5H34.5H94C104.493 208.5 113 199.993 113 189.5V161.5V159C113 147.402 122.402 138 134 138H187C198.322 138 207.5 147.178 207.5 158.5V161.5V183.5C207.5 197.307 218.693 208.5 232.5 208.5H289.396C298.303 208.5 306.72 204.421 312.239 197.43C316.294 192.294 318.5 185.941 318.5 179.396V39.3175C318.5 32.8788 316.859 26.5464 313.732 20.918L313.436 20.3854C310.209 14.5769 305.427 9.78293 299.627 6.54155C294.298 3.56353 288.295 2 282.19 2Z" stroke="#FF2A0B" stroke-width="3"/>
</svg>
