<svg width="324" height="209" viewBox="0 0 324 209" fill="none" xmlns="http://www.w3.org/2000/svg">
<path d="M286 0H32C14.3269 0 0 14.3269 0 32V40V175.5V183C0 195.426 10.0736 205.5 22.5 205.5H32H85C99.6355 205.5 111.5 193.636 111.5 179V175.5V152V151.5C111.5 141.835 119.335 134 129 134H193.5C202.889 134 210.5 141.611 210.5 151V152V175.5V176.5C210.5 192.516 223.484 205.5 239.5 205.5H299.5C311.098 205.5 320.5 196.098 320.5 184.5V175.5V40V34.5C320.5 15.4462 305.054 0 286 0Z" stroke="#000000" stroke-width="3"/>
</svg>
