<svg width="317" height="207" viewBox="0 0 317 207" fill="none" xmlns="http://www.w3.org/2000/svg">
<path id="Vector 3" d="M280.19 0H36.5107C33.8444 0 31.1855 0.281685 28.5783 0.840366L23.0291 2.02948C11.7631 4.44361 2.97827 13.2705 0.6179 24.5478C0.207064 26.5107 0 28.5107 0 30.5162V179.5C0 194.412 12.0883 206.5 27 206.5H32.5H92C102.493 206.5 111 197.993 111 187.5V159.5V157C111 145.402 120.402 136 132 136H185C196.322 136 205.5 145.178 205.5 156.5V159.5V181.5C205.5 195.307 216.693 206.5 230.5 206.5H287.396C296.303 206.5 304.72 202.421 310.239 195.43C314.294 190.294 316.5 183.941 316.5 177.396V37.3175C316.5 30.8788 314.859 24.5464 311.732 18.918L311.436 18.3854C308.209 12.5769 303.427 7.78293 297.627 4.54155C292.298 1.56353 286.295 0 280.19 0Z" fill="#FF2A0B"/>
</svg>
