<svg width="324" height="209" viewBox="0 0 324 209" fill="none" xmlns="http://www.w3.org/2000/svg">
<path d="M288 2H34C16.3269 2 2 16.3269 2 34V42V177.5V185C2 197.426 12.0736 207.5 24.5 207.5H34H87C101.636 207.5 113.5 195.636 113.5 181V177.5V154V153.5C113.5 143.835 121.335 136 131 136H195.5C204.889 136 212.5 143.611 212.5 153V154V177.5V178.5C212.5 194.516 225.484 207.5 241.5 207.5H301.5C313.098 207.5 322.5 198.098 322.5 186.5V177.5V42V36.5C322.5 17.4462 307.054 2 288 2Z" fill="black" stroke="black" stroke-width="3"/>
</svg>
